<svg width="73" height="72" viewBox="0 0 73 72" fill="none" xmlns="http://www.w3.org/2000/svg">
<g id="Frame 18">
<g id="Group 8">
<g id="Group 6">
<g id="Group 3">
<path id="path20" d="M66.6103 28.6346C63.907 21.3845 55.1118 18.0071 48.0426 20.7644C42.8067 22.5826 38.3478 26.0465 34.4131 29.8718C32.9034 31.535 30.9587 33.021 29.9995 35.0775C29.8897 35.4977 29.9534 35.866 30.2892 36.1746C31.0081 36.8523 31.7842 35.9345 32.4761 35.6665C38.9125 32.421 60.4608 21.2906 56.8857 37.0837C53.8907 50.8362 35.9474 58.9799 23.6072 52.2637C17.8481 49.0744 13.9297 43.0864 12.8284 36.6426C12.3489 31.7989 13.7771 26.9045 16.1515 22.708C17.3514 20.5871 19.0321 18.7647 20.9064 17.2223C22.996 15.5028 25.3646 14.0509 27.8588 12.9985C28.9327 12.5453 30.0329 12.1587 31.1251 11.753C31.5048 11.6119 31.8795 11.4575 32.2655 11.3337C32.4349 11.2794 32.8915 11.1991 32.8702 10.9508C32.8408 10.6114 32.1516 10.6754 31.9291 10.672C31.357 10.6633 30.7845 10.6795 30.2138 10.719C29.0691 10.7981 27.9302 10.9691 26.813 11.2308C25.5725 11.5215 24.3796 11.9777 23.2169 12.4933C22.0739 13.0009 20.9586 13.5709 19.878 14.2005C17.7167 15.46 15.6922 16.9592 13.8757 18.6805C13.0474 19.4654 12.1301 20.3048 11.4707 21.2415C8.01363 26.1521 5.49226 32.3726 5.88249 38.3945C5.29203 48.6495 11.1874 58.1091 19.6203 63.5363C26.8437 68.2316 36.0995 69.3542 44.3567 67.1156C53.3344 64.7191 60.4198 57.8384 64.3405 49.5587C67.6654 43.2595 69.3519 35.4424 66.6103 28.6346Z" fill="url(#paint0_linear_272_7198)"/>
<g id="Mask group">
<mask id="mask0_272_7198" style="mask-type:alpha" maskUnits="userSpaceOnUse" x="5" y="10" width="63" height="59">
<path id="path20_2" d="M66.61 28.6346C63.9067 21.3846 55.1116 18.0072 48.0424 20.7644C42.8065 22.5826 38.3476 26.0465 34.4128 29.8718C32.9031 31.535 30.9585 33.021 29.9992 35.0775C29.8895 35.4977 29.9531 35.866 30.289 36.1746C31.0079 36.8523 31.784 35.9345 32.4758 35.6665C38.9123 32.421 60.4605 21.2906 56.8855 37.0837C53.8905 50.8362 35.9472 58.9799 23.607 52.2637C17.8479 49.0744 13.9295 43.0865 12.8282 36.6426C12.3486 31.7989 13.7769 26.9046 16.1513 22.708C17.3512 20.5871 19.0318 18.7647 20.9061 17.2223C22.9957 15.5028 25.3643 14.0509 27.8586 12.9985C28.9325 12.5453 30.0326 12.1587 31.1248 11.753C31.5046 11.6119 31.8792 11.4575 32.2652 11.3338C32.4347 11.2794 32.8913 11.1991 32.8699 10.9508C32.8406 10.6114 32.1514 10.6754 31.9289 10.672C31.3568 10.6633 30.7843 10.6796 30.2135 10.719C29.0688 10.7981 27.93 10.9691 26.8127 11.2309C25.5723 11.5215 24.3794 11.9777 23.2166 12.4933C22.0737 13.0009 20.9584 13.5709 19.8778 14.2006C17.7165 15.46 15.692 16.9592 13.8755 18.6806C13.0471 19.4654 12.1299 20.3048 11.4704 21.2415C8.01338 26.1521 5.49201 32.3726 5.88225 38.3945C5.29178 48.6495 11.1872 58.1091 19.6201 63.5363C26.8434 68.2316 36.0992 69.3542 44.3565 67.1156C53.3341 64.7191 60.4196 57.8384 64.3403 49.5587C67.6651 43.2596 69.3517 35.4424 66.61 28.6346Z" fill="#EA5325"/>
</mask>
<g mask="url(#mask0_272_7198)">
<path id="path20_3" d="M61.5739 41.3158C65.5508 23.1014 49.9984 16.981 30.1182 35.9162L36.044 36.6812H51.1453C50.8904 40.0602 48.0486 47.4685 38.7202 50.0697C29.5447 57.4867 19.4772 45.5096 15.5903 38.5939V28.0743C15.6155 28.3655 32.061 11.0546 31.8618 11.1184C31.4079 11.2635 30.9675 11.4446 30.521 11.61C29.2368 12.0858 27.9433 12.5392 26.6807 13.0706C23.748 14.3049 20.9631 16.0076 18.5063 18.024C16.3025 19.8327 14.3265 21.97 12.9157 24.4571C10.124 29.3785 8.44472 35.1182 9.00856 40.7985C10.3034 48.3553 14.9105 55.3775 21.6818 59.1176C36.1909 66.9938 58.0525 57.4436 61.5739 41.3158Z" fill="url(#paint1_linear_272_7198)"/>
</g>
</g>
<path id="path20_4" d="M16.1513 22.708C13.7769 26.9045 12.3487 31.7989 12.8282 36.6426C13.8755 51.9824 23.2368 62.5019 31.0742 67.8488C27.0117 67.2166 23.0824 65.7868 19.6201 63.5363C11.1873 58.109 5.5 48.9247 5.5 38.3945C5.5 32.6646 6.41508 27.6918 11.4705 21.2415C12.1299 20.3048 13.0472 19.4654 13.8755 18.6805C15.692 16.9592 17.7165 15.46 19.8779 14.2005C20.9584 13.5709 22.0737 13.0009 23.2167 12.4933C24.3794 11.9777 25.5723 11.5214 26.8128 11.2308C27.93 10.9691 29.0689 10.798 30.2136 10.719C30.7844 10.6795 31.3568 10.6632 31.9289 10.672C32.1514 10.6753 32.8407 10.6114 32.87 10.9508C32.8913 11.199 32.4348 11.2794 32.2653 11.3337C31.8793 11.4575 31.5047 11.6119 31.1249 11.753C30.0327 12.1587 28.9326 12.5453 27.8586 12.9985C25.3644 14.0509 22.9958 15.5028 20.9062 17.2223C19.0319 18.7646 17.3512 20.5871 16.1513 22.708Z" fill="url(#paint2_linear_272_7198)"/>
</g>
<path id="Intersect" fill-rule="evenodd" clip-rule="evenodd" d="M13.3263 37.2745C12.8468 32.4308 14.275 27.5364 16.6494 23.3398C17.8493 21.219 19.53 19.3965 21.4043 17.8542C23.3127 16.2838 27.4359 13.4988 30.0367 12.2259C30.8857 11.7299 31.8041 11.3325 32.7946 11.0518C32.8824 10.8761 32.7982 10.7944 32.6123 10.8576L32.6034 10.8605C32.4073 10.9232 32.0713 11.008 31.717 11.0974C31.2515 11.2149 30.7543 11.3403 30.5007 11.4343C29.9196 11.6496 29.3407 11.8044 28.764 11.9586C28.0664 12.1451 27.3721 12.3307 26.6809 12.6216C23.7482 13.8558 20.9634 15.5585 18.5065 17.5749C16.3028 19.3837 14.3267 21.5209 12.9159 24.0081C10.1242 28.9295 8.44496 34.6692 9.0088 40.3495C10.2659 47.6856 14.6445 54.5179 21.0944 58.3326C17.0619 52.8441 13.9087 45.8046 13.3263 37.2745Z" fill="url(#paint3_linear_272_7198)"/>
</g>
<g id="Group 7">
<circle id="Ellipse 3" cx="54.525" cy="10.2218" r="7.22176" fill="#157DC1"/>
<path id="Intersect_2" fill-rule="evenodd" clip-rule="evenodd" d="M48.1238 6.8751C49.3306 4.57165 51.7442 3.00002 54.5249 3.00002C57.3057 3.00002 59.7193 4.57165 60.9261 6.8751C59.7193 9.17856 57.3057 10.7502 54.5249 10.7502C51.7442 10.7502 49.3306 9.17856 48.1238 6.8751Z" fill="url(#paint4_linear_272_7198)"/>
</g>
</g>
</g>
<defs>
<linearGradient id="paint0_linear_272_7198" x1="36.9116" y1="68.2261" x2="36.9116" y2="10.6692" gradientUnits="userSpaceOnUse">
<stop stop-color="#033C61"/>
<stop stop-color="#075B91"/>
<stop offset="0.75" stop-color="#28B8EA"/>
</linearGradient>
<linearGradient id="paint1_linear_272_7198" x1="7.75297" y1="53.895" x2="57.284" y2="14.7132" gradientUnits="userSpaceOnUse">
<stop offset="0.064555" stop-color="#166CA5"/>
<stop offset="0.453978" stop-color="#19A9E0"/>
<stop offset="0.908751" stop-color="#0D5A8D"/>
</linearGradient>
<linearGradient id="paint2_linear_272_7198" x1="19.3562" y1="67.8488" x2="19.3562" y2="10.6692" gradientUnits="userSpaceOnUse">
<stop stop-color="#E84102"/>
<stop offset="0.445" stop-color="#FEBB0D"/>
<stop offset="1" stop-color="#AE3204"/>
</linearGradient>
<linearGradient id="paint3_linear_272_7198" x1="19.7959" y1="66.9705" x2="19.7959" y2="10.392" gradientUnits="userSpaceOnUse">
<stop stop-color="#FE4F0D"/>
<stop offset="0.27" stop-color="#FEAC0D"/>
<stop offset="0.64" stop-color="#FE4F0D"/>
<stop offset="1" stop-color="#FEBB0D"/>
</linearGradient>
<linearGradient id="paint4_linear_272_7198" x1="50.4737" y1="3.52844" x2="53.9965" y2="10.9263" gradientUnits="userSpaceOnUse">
<stop stop-color="#24B2E7"/>
<stop offset="0.517084" stop-color="#1798D6"/>
<stop offset="1" stop-color="#22A7DF"/>
</linearGradient>
</defs>
</svg>
